<?xml version="1.0" encoding="UTF-8"?>
<svg id="Layer_1" xmlns="http://www.w3.org/2000/svg" version="1.1" viewBox="0 0 72.17 60">
  <!-- Generator: Adobe Illustrator 30.2.1, SVG Export Plug-In . SVG Version: 2.1.1 Build 1)  -->
  <defs>
    <style>
      .st0 {
        fill: #4486c6;
      }

      .st1, .st2 {
        fill: #b5e3f5;
      }

      .st2 {
        opacity: .4;
      }

      .st3 {
        fill: #1a4699;
      }

      .st4 {
        fill: #c1dff4;
      }
    </style>
  </defs>
  <polygon class="st3" points="27.37 28.55 27.37 28.55 .23 43.17 .07 14.86 27.21 .24 27.22 .25 27.37 28.55"/>
  <polygon class="st0" points="27.37 28.55 27.37 28.55 27.22 .25 54.51 13.94 54.66 42.25 27.37 28.55"/>
  <polygon class="st1" points="54.66 42.25 27.52 56.86 27.52 56.86 .23 43.17 27.37 28.55 27.37 28.55 54.66 42.25"/>
  <path class="st3" d="M13.15,42.95c2.6-12.67,9.08-22.2,10.07-35.2,5.48,12.14,13.27,23.11,23.58,31.5,7.94,6.84,16.08,9.04,25.7,11.77"/>
  <path class="st0" d="M61.38,58.81c-8.6-4.55-15.91-8.28-22.08-16.4-8.12-10.07-13.32-22.08-16.08-34.75-3.57,12.18-6.7,24.18-11.74,35.71l9.54,2.98-.02-.26.65-9.82,3.55.48,6.19,12.7"/>
  <path class="st0" d="M37.06,32.65"/>
  <path class="st4" d="M61.38,58.56c-7.21-3.81-14.45-7.65-19.95-13.82-5.93-6.64-10.53-14.55-13.8-22.81-1.87-4.71-3.32-9.58-4.4-14.53.03.16-.03.34,0,.5,1.92,8.76,5,17.28,9.47,25.07,2.23,3.88,4.81,7.56,7.66,11.01,2.61,3.17,5.69,5.89,9.07,8.21,3.8,2.6,7.89,4.71,11.96,6.86-.07-.03.07-.46,0-.5h0Z"/>
  <polygon class="st2" points="54.44 14.19 27.29 28.81 27.29 28.8 0 15.11 27.14 .5 27.14 .5 54.44 14.19"/>
</svg>